<?xml version="1.0" standalone="no"?>
<!DOCTYPE svg PUBLIC "-//W3C//DTD SVG 20010904//EN"
 "http://www.w3.org/TR/2001/REC-SVG-20010904/DTD/svg10.dtd">
<svg version="1.0" xmlns="http://www.w3.org/2000/svg"
 width="1080.000000pt" height="1080.000000pt" viewBox="0 0 1080.000000 1080.000000"
 preserveAspectRatio="xMidYMid meet">
<metadata>
Created by potrace 1.14, written by Peter Selinger 2001-2017
</metadata>
<g transform="translate(0.000000,1080.000000) scale(0.100000,-0.100000)"
fill="#000000" stroke="none">
<path d="M5050 10789 c-1053 -70 -2090 -457 -2920 -1092 -372 -285 -742 -655
-1027 -1027 -582 -762 -956 -1694 -1068 -2660 -147 -1277 177 -2587 903 -3650
319 -468 738 -910 1192 -1257 762 -582 1694 -956 2660 -1068 1277 -147 2587
177 3650 903 468 319 910 738 1257 1192 582 762 956 1694 1068 2660 147 1277
-177 2587 -903 3650 -319 468 -738 910 -1192 1257 -426 325 -944 606 -1456
788 -686 245 -1446 351 -2164 304z m665 -460 c1540 -101 2937 -906 3790 -2184
292 -437 496 -876 640 -1375 597 -2066 -213 -4282 -2000 -5475 -437 -292 -876
-496 -1375 -640 -1748 -505 -3635 -7 -4902 1293 -576 592 -985 1294 -1213
2082 -597 2066 213 4282 2000 5475 546 364 1124 605 1761 734 435 88 870 119
1299 90z"/>
<path d="M2235 8661 c-49 -22 -91 -69 -105 -119 -8 -26 -10 -797 -8 -2584 l3
-2546 30 -43 c17 -23 48 -52 70 -63 40 -21 44 -21 1273 -24 1032 -2 1232 -4
1232 -16 0 -45 -125 -310 -205 -433 -67 -103 -191 -258 -241 -302 l-35 -31
-375 0 c-354 0 -377 -1 -414 -20 -62 -32 -93 -81 -98 -155 -5 -77 20 -130 82
-172 l41 -28 1915 0 1915 0 41 28 c62 42 87 95 82 172 -5 74 -36 123 -98 155
-37 19 -60 20 -414 20 l-375 0 -35 31 c-50 44 -174 199 -241 302 -80 123 -205
388 -205 433 0 11 202 14 1233 16 1228 3 1232 3 1272 24 22 11 54 40 70 63
l30 43 3 2546 c2 1787 0 2558 -8 2584 -14 50 -56 97 -105 119 -39 18 -155 19
-3165 19 -3010 0 -3126 -1 -3165 -19z m6063 -2293 l2 -1928 -2900 0 -2900 0 0
1923 c0 1058 3 1927 7 1930 3 4 1307 6 2897 5 l2891 -3 3 -1927z m-3 -2508 l0
-185 -2895 0 -2895 0 -3 175 c-1 96 0 180 2 187 4 11 547 13 2898 11 l2893 -3
0 -185z m-2615 -652 c57 -187 174 -435 286 -605 34 -51 59 -95 56 -98 -7 -7
-1237 -7 -1244 0 -3 3 22 47 56 98 111 168 215 387 281 590 l28 87 257 0 258
0 22 -72z"/>
<path d="M5704 7691 c-80 -36 -129 -140 -106 -220 16 -51 54 -97 103 -121 36
-19 60 -20 373 -20 212 0 345 4 363 11 60 22 122 109 123 169 0 76 -46 150
-115 181 -36 17 -71 19 -370 19 -301 0 -334 -2 -371 -19z"/>
<path d="M7053 7689 c-139 -69 -141 -269 -3 -339 37 -19 59 -20 376 -20 319 0
340 1 380 20 24 12 54 38 70 62 25 36 29 51 29 109 0 60 -3 71 -31 106 -16 21
-50 48 -74 61 -43 21 -52 22 -375 22 -314 0 -332 -1 -372 -21z"/>
<path d="M3392 7685 c-43 -19 -451 -416 -480 -469 -30 -53 -26 -135 9 -187 44
-64 442 -442 479 -455 136 -48 260 38 260 178 0 74 -20 102 -173 250 l-132
128 137 132 c86 84 143 147 153 170 30 73 11 172 -42 220 -50 46 -147 61 -211
33z"/>
<path d="M4535 7681 c-48 -22 -69 -44 -90 -94 -19 -46 -19 -107 0 -154 10 -23
69 -88 153 -170 l137 -133 -137 -132 c-144 -140 -168 -175 -168 -250 0 -128
131 -219 255 -178 47 16 446 399 487 469 33 55 37 120 9 173 -24 47 -419 436
-473 466 -51 27 -118 29 -173 3z"/>
<path d="M5705 6923 c-69 -36 -115 -105 -115 -173 0 -77 62 -158 138 -180 26
-8 349 -10 1049 -8 1004 3 1012 3 1039 24 15 11 42 37 58 58 28 34 31 45 31
105 0 78 -22 120 -84 162 l-36 24 -1025 2 c-920 2 -1028 1 -1055 -14z"/>
<path d="M3005 6156 c-16 -7 -45 -28 -62 -46 -89 -92 -61 -237 57 -297 43 -23
51 -23 375 -23 301 0 334 2 371 19 109 50 142 199 64 293 -56 68 -59 68 -437
68 -257 -1 -345 -4 -368 -14z"/>
<path d="M4355 6154 c-154 -80 -149 -283 7 -349 31 -12 92 -15 365 -15 367 0
384 3 436 72 60 78 58 172 -4 242 -57 66 -60 66 -436 66 -287 0 -343 -2 -368
-16z"/>
<path d="M5702 6154 c-45 -23 -89 -76 -103 -125 -24 -80 25 -184 105 -220 37
-17 70 -19 371 -19 299 0 334 2 370 19 69 31 115 104 115 181 0 40 -41 111
-83 144 l-39 31 -351 2 c-308 3 -356 1 -385 -13z"/>
<path d="M7048 6150 c-136 -73 -134 -272 5 -339 41 -20 58 -21 373 -21 322 0
331 1 374 23 24 12 58 39 74 60 28 35 31 46 31 106 0 58 -4 74 -28 108 -15 22
-47 49 -71 61 -42 21 -54 22 -382 22 -316 -1 -341 -2 -376 -20z"/>
<path d="M2978 5371 c-126 -80 -114 -259 22 -328 l44 -23 1001 0 c1059 1 1045
0 1097 47 28 25 68 111 68 148 -1 65 -61 151 -123 174 -19 8 -351 11 -1046 11
l-1017 0 -46 -29z"/>
<path d="M5705 5386 c-60 -27 -115 -110 -115 -173 0 -35 41 -122 68 -146 52
-47 38 -46 1097 -47 l1001 0 44 23 c136 69 148 248 22 328 l-46 29 -1020 0
c-831 -1 -1027 -3 -1051 -14z"/>
</g>
</svg>
